<svg width="225" height="40" viewBox="0 0 225 40" fill="none" xmlns="http://www.w3.org/2000/svg">
<path d="M38.9962 21.1112C38.8244 27.3966 35.4376 32.5313 30.001 35.3208C25.7612 37.4962 21.0897 38.3157 16.3825 37.1693C16.0598 37.0917 15.5861 36.4735 15.5694 36.1675C15.5505 35.8217 16.0409 35.2139 16.4266 35.107L20.0942 34.0738C24.7699 32.7555 31.5792 25.8079 29.8669 20.8639C28.4837 16.8672 17.9355 17.1439 19.3942 11.7137C19.9747 9.5508 20.6496 7.49482 21.4879 5.41578C22.1711 3.71609 24.1035 1.02927 26.1699 1.55531C26.7547 2.11699 26.8657 3.59243 26.5535 4.29243C24.6086 6.00261 24.2858 8.91997 26.3648 10.6071C27.8214 11.7891 30.1268 11.7891 31.5519 10.649C32.7885 9.65978 32.91 8.27655 33.2223 6.76758C33.8489 6.08015 35.1672 4.98405 36.1082 4.69063C37.875 4.57117 39.3588 5.51638 40.9642 6.56219L36.9738 9.34332C35.8819 10.1041 35.4753 11.4915 35.9867 12.7616C37.0492 15.4002 39.1262 16.3517 38.9962 21.1112Z" fill="black"/>
<path d="M151.958 32.4286L152.023 19.5834L144.821 19.5583V31.9047C144.821 32.655 145.356 33.2669 146.018 33.3864L147.416 33.64L147.366 35.3271H137.874C137.57 34.9855 137.522 33.7972 137.922 33.6337C138.643 33.3696 139.934 33.2963 139.938 32.2798L139.974 19.6044L137.463 19.5227L137.484 18.0598L139.993 16.8107C139.756 13.2269 141.688 10.1104 145.098 9.03316C148.131 8.07538 154.554 7.88047 155.219 11.458C155.372 12.2817 155.236 13.8284 154.15 14.1427C153.064 14.4571 151.671 14.258 150.449 14.2831C150.354 13.1745 150.501 11.9861 149.885 11.1185C149.216 10.1796 147.925 10.2215 146.875 10.5673C144.568 11.3302 144.792 15.3981 144.842 17.3807L157.046 17.3912L156.925 21.0232L156.918 32.0325C156.918 33.1181 157.975 33.4555 158.937 33.5645C159.306 33.8118 159.293 34.757 159.081 35.3229H149.761C149.711 34.6606 149.715 34.0067 149.83 33.6002C150.507 33.4493 151.945 33.3675 151.951 32.4286H151.958Z" fill="black"/>
<path d="M72.1854 26.9062C72.1854 25.8457 71.4498 25.0828 70.5465 24.9592L68.8741 24.7307L68.9516 22.9095H79.4788C79.5731 23.4795 79.5836 24.2236 79.4977 24.7831C78.2926 24.8565 77.4752 25.349 77.4647 26.4954L77.3977 33.1014C72.8351 35.5891 67.6564 36.3603 62.7376 35.0714C54.7044 32.9651 51.8499 24.3116 54.7882 17.1167C56.2008 13.6565 58.9903 11.1332 62.5091 9.91132C66.7615 8.43587 72.7136 8.91162 76.6348 11.5963L76.7941 17.4394L74.4258 17.4206C73.1704 13.6984 71.3848 11.6131 67.3001 11.4496C64.1753 11.3239 61.5199 13.0026 60.4049 16.0164C58.9504 19.9544 59.0993 24.5065 60.7109 28.3858C62.0774 31.6741 65.0744 33.4723 68.5597 33.2041C69.8591 33.1035 71.1773 32.8541 72.1833 31.9529V26.9104L72.1854 26.9062Z" fill="black"/>
<path d="M127.772 32.6067C126.293 34.7591 123.82 35.9265 121.041 35.6373C118.096 35.3313 115.711 33.5163 114.831 30.6283C114.076 28.1532 114.131 25.5313 115.028 23.0771C116.906 17.9361 122.721 15.5679 127.785 18.0577L127.818 12.2816L125.999 11.1604C125.76 11.0137 125.549 9.99512 125.836 9.91967L131.182 8.52806C131.671 8.40021 132.312 8.43794 132.838 8.46937L132.704 11.173L132.718 31.6699C132.718 32.6989 134.068 32.6885 134.871 32.743C135.183 33.0427 135.162 34.0403 134.976 34.5705L127.712 35.8028L127.772 32.6088V32.6067ZM122.556 32.0136C124.469 32.6948 126.333 32.2232 127.814 30.9825L127.798 22.4777C127.793 20.7214 126.444 19.4744 124.828 19.2628C122.74 18.9882 120.875 20.0047 120.07 21.9978C118.815 25.1121 119.062 30.7708 122.554 32.0136H122.556Z" fill="black"/>
<path d="M217.097 22.7732C217.101 21.5095 216.259 20.6648 215.14 20.5202C213.279 20.2792 211.453 20.8346 209.915 21.8469L209.972 32.4139C209.976 33.269 211.246 33.4471 211.952 33.5897C212.256 33.8831 212.241 34.6983 212.107 35.3292L202.772 35.325L202.827 33.5708C203.697 33.4974 205.009 33.2942 205.011 32.3259L205.036 12.3089L203.051 11.0158C202.816 10.8628 202.837 9.9511 203.152 9.86937L207.962 8.64123C208.63 8.47147 209.355 8.42536 210.007 8.44422L209.93 20.1493C212.566 17.825 215.127 16.4146 218.508 17.3493C220.444 17.8837 221.899 19.5918 221.92 21.6981L222.027 32.307C222.037 33.2627 223.213 33.5247 224.171 33.5519C224.227 34.0591 224.252 34.6355 224.257 35.3292H214.867C214.815 34.6124 214.834 34.0382 214.957 33.5456C215.88 33.5268 217.053 33.2334 217.057 32.3049L217.097 22.7774V22.7732Z" fill="black"/>
<path d="M4.96471 35.3501C8.60721 32.986 10.7554 27.889 11.2835 27.6732C12.0779 27.3462 15.756 30.7372 17.0156 28.1196C16.8898 27.2393 13.2452 27.5118 12.474 25.3678C12.0045 24.0621 13.744 21.5241 14.6201 21.3103C14.9198 21.2369 15.6239 21.4884 15.8272 21.7399C18.7907 25.3929 23.7556 26.0154 23.9799 24.1375C24.1056 23.0875 19.935 24.0579 16.8751 20.0864C15.9509 18.8876 15.8314 17.6301 16.8353 16.404C17.0554 16.1358 17.4703 15.7397 17.7617 15.6642C18.1179 15.572 18.841 15.8507 19.1093 16.1211C21.6913 18.7325 23.5188 18.6696 26.7484 20.2289C27.9954 20.8304 28.5173 22.113 28.096 23.5172C26.6499 28.3501 22.5862 31.8187 17.6254 32.9567C14.8695 33.5896 12.4216 34.5013 10.1204 36.1444L6.44225 38.7683C3.0219 41.2079 -1.37928 39.4662 0.414728 38.301L4.96471 35.348V35.3501Z" fill="black"/>
<path d="M175.965 22.8151C175.965 21.4088 174.984 20.5349 173.716 20.472C171.939 20.384 170.258 20.8765 168.756 21.8343L168.774 32.1205C168.774 33.1789 169.91 33.4932 170.895 33.5645C171.115 33.9459 171.124 34.6732 171.023 35.3292H161.642C161.573 34.6606 161.58 33.9837 161.735 33.5896C162.598 33.4744 163.851 33.2878 163.856 32.3049L163.895 21.281L162.145 20.0424C161.823 19.8139 161.534 18.8226 161.997 18.6864L167.081 17.1774C167.609 17.0202 168.269 17.0097 168.9 17.0118L168.787 20.3756C170.608 18.2211 173.239 16.8735 176.097 17.0957C178.757 17.3032 180.769 19.1181 180.794 21.872L180.894 32.3259C180.905 33.3214 182.171 33.4807 183.053 33.5875C183.147 34.0193 183.164 34.6585 183.137 35.3292L173.775 35.3333C173.605 34.7004 173.601 33.8914 173.934 33.5603C174.898 33.489 175.961 33.1537 175.961 32.0869L175.967 22.8193L175.965 22.8151Z" fill="black"/>
<path d="M98.6258 32.6906C96.377 35.1574 93.1641 35.8888 90.0791 35.5954C85.4034 35.1511 82.2869 31.4352 82.2073 26.8517C82.1151 21.6332 85.7052 17.5023 90.9887 17.1083C94.1387 16.8736 97.362 17.8 99.3132 20.4763C101.937 24.0769 101.705 29.3122 98.6258 32.6906ZM93.7635 33.0511C94.6794 32.59 95.2767 31.54 95.5031 30.6053C96.3016 27.3002 96.1045 20.8996 92.548 19.5458C90.5905 18.7997 88.5722 19.6883 87.9624 21.7401C87.0675 24.7475 87.1953 28.1553 88.5178 31.0077C89.4567 33.0322 91.7076 34.0906 93.7635 33.0532V33.0511Z" fill="black"/>
<path d="M189.749 21.9789C188.965 24.0873 189.049 26.3214 189.722 28.3544C190.436 30.5193 192.279 31.737 194.511 31.8858C196.619 32.0262 198.631 31.1481 199.972 29.5762C200.31 29.4358 201.247 29.857 201.226 30.1987C200.295 33.5519 197.166 35.6289 193.693 35.6792C190.803 35.7232 188.106 34.8241 186.379 32.481C184.857 30.4145 184.459 27.8933 184.765 25.3574C185.308 20.8723 188.716 17.496 193.234 17.125C195.19 16.9637 197.116 17.1691 198.807 18.1268C200.496 19.0825 201.41 20.9646 200.765 22.79C200.473 23.6137 199.763 24.0601 198.943 24.0391L196.46 23.9783L196.389 21.805C196.361 20.9981 195.927 19.9271 195.16 19.575C193.012 18.59 190.587 19.7176 189.747 21.981L189.749 21.9789Z" fill="black"/>
<path d="M102.989 35.3313C102.742 34.8031 102.715 33.7594 103.113 33.6127C103.937 33.3864 105.117 33.2816 105.119 32.2463L105.14 12.3194L103.501 11.2882C103.195 11.0954 102.767 10.0307 103.124 9.93853L108.564 8.51548C108.954 8.41279 109.556 8.43165 110.132 8.42746L110.019 11.3825L110.042 32.3154C110.042 33.3214 111.392 33.4492 112.207 33.5876C112.318 34.0025 112.333 34.6606 112.301 35.3187L102.994 35.3313H102.989Z" fill="black"/>
<path d="M32.1346 4.70532C30.8604 4.2673 30.0179 3.92778 28.6535 3.59455C28.4397 3.2676 27.5721 -0.274303 28.7499 0.0170131C30.9086 0.549347 32.9184 1.57419 34.5343 3.17539C34.134 3.92359 32.9247 4.97987 32.1346 4.70742V4.70532Z" fill="black"/>
<path d="M29.0434 9.68915C27.6497 9.68915 26.8261 8.64125 26.8491 7.4676C26.8743 6.18078 28.0186 5.29006 29.3431 5.47659C30.6069 5.65473 31.3676 6.52239 31.288 7.68556C31.2084 8.84873 30.3994 9.68915 29.0413 9.68706L29.0434 9.68915Z" fill="black"/>
</svg>
