<svg width="166" height="44" viewBox="0 0 166 44" fill="none" xmlns="http://www.w3.org/2000/svg">
<path d="M19.2427 0C19.2427 0.0271605 19.2325 0.0712963 19.2427 0.0950617C19.2665 0.139198 19.3038 0.112037 19.3751 0.118827C24.8649 0.679012 29.8013 3.78549 32.6362 8.54537C35.831 13.913 36.0143 20.5231 32.9282 26.1284C30.2223 31.0478 24.7936 33.6247 19.297 35.0914C19.6331 29.8698 15.9665 25.3204 10.7449 24.6923L10.7075 1.44969C12.2896 0.777469 13.9498 0.25463 15.7356 0.132407C15.7865 0.129012 15.8409 0.125617 15.8646 0.0950617C15.8816 0.0746914 15.8646 0.0271605 15.8646 0H19.2325L19.2427 0Z" fill="#DEDEDE"/>
<path d="M19.2496 35.1083C18.9271 39.8003 15.2332 44 10.5922 44H8.87428C8.62305 43.9762 8.57891 43.966 8.41255 43.9355C6.78632 43.6231 5.21101 43.1207 3.85299 42.092C1.65978 40.4352 0.21348 37.8787 0.0267513 35.1592C-0.0105944 34.6025 -0.00719937 34.0015 0.0267513 33.4447C0.165949 31.1463 1.28971 29.0142 2.8786 27.3676H2.93971C5.62521 32.3957 14.7443 36.3068 19.2496 35.1049V35.1083Z" fill="black"/>
<path d="M0.00976562 16.6086C0.311926 10.8676 3.55761 5.40153 8.54495 2.57684L8.56193 24.7228C6.40606 24.9775 4.41656 25.8873 2.9397 27.3744H2.87859C1.2218 24.7772 0.162543 21.8574 0.0165557 18.7407" fill="#DEDEDE"/>
<path d="M165.061 12.2664V13.9401H157.748V18.7475H164.555L164.562 20.4247L157.775 20.4315V24.2747C157.768 25.0827 158.318 25.5988 159.136 25.6803L165.061 25.6938V27.3982L158.99 27.388C158.321 27.388 157.697 27.2624 157.103 27.0077C156.128 26.5867 155.857 25.6259 155.857 24.621V12.263H165.057L165.061 12.2664Z" fill="black"/>
<path d="M10.7178 1.45309L10.7552 24.6957C15.9768 25.3238 19.6434 29.8698 19.3073 35.0948L19.253 35.1083C14.7477 36.3068 5.62861 32.3957 2.94312 27.3744C4.41997 25.8873 6.41287 24.9775 8.56534 24.7228L8.54836 2.57685C9.25793 2.17624 9.94713 1.77901 10.7178 1.44969V1.45309Z" fill="#6A6A6A"/>
<path d="M101.743 27.3574L99.6209 27.371C98.3308 24.784 96.9762 22.3022 95.5197 19.8136C94.4808 18.0346 93.4555 16.3133 92.2265 14.5988L92.2163 27.3676H90.3354V12.2426L92.8274 12.2324C94.1787 14.1303 95.4484 16.0519 96.6163 18.0923L99.8382 24.0201L99.8654 12.2494L101.743 12.2392V27.3574Z" fill="black"/>
<path d="M125.468 21.9864C124.877 25.0522 122.273 27.3506 119.153 27.3574L113.707 27.371V12.2358L119.217 12.2562C122.273 12.2664 124.785 14.6497 125.437 17.5932C125.746 19.0633 125.766 20.4722 125.464 21.9864H125.468ZM123.369 22.1087C123.794 20.5198 123.77 18.8867 123.335 17.3488C122.643 14.9009 120.422 13.8892 118.039 13.8994L115.595 13.9096L115.601 25.6904H117.975C120.419 25.6904 122.69 24.6685 123.373 22.112L123.369 22.1087Z" fill="black"/>
<path d="M71.8459 24.2747C71.8459 25.0861 72.4027 25.6055 73.2209 25.6802L79.1521 25.7006V27.3981L73.0749 27.388C72.0293 27.388 70.4743 27.0349 70.1552 25.8704C70.0228 25.4799 69.9617 25.1065 69.9617 24.6651V12.2697H79.1657L79.1725 13.9401H71.8527L71.8425 18.7407L78.6836 18.7577V20.4315L71.8493 20.4349L71.8425 24.2781L71.8459 24.2747Z" fill="black"/>
<path d="M58.9617 18.7102C58.4117 20.2244 56.7923 21.2056 55.2339 21.209L50.8577 21.2192V27.3642H48.9463V12.2324L55.2951 12.2528C57.1725 12.2596 58.758 13.6685 59.2435 15.4374C59.437 16.5645 59.3488 17.6509 58.9651 18.7102H58.9617ZM56.575 14.4935C56.2015 14.154 55.7466 13.9673 55.2339 13.9164H50.8339V19.508H55.1015C56.0929 19.4979 56.9111 18.8901 57.254 17.9667C57.692 16.7886 57.5562 15.3932 56.575 14.4935Z" fill="black"/>
<path d="M146.069 27.3981L139.89 27.3914C139.238 27.3914 138.62 27.2861 138.029 27.0518C137.065 26.675 136.685 25.7142 136.685 24.7262V12.2697H138.589L138.596 24.3188C138.596 25.0997 139.187 25.6633 139.981 25.6667L146.069 25.7006V27.3981Z" fill="black"/>
</svg>
