<svg
  width="1063"
  height="400"
  viewBox="0 0 1063 400"
  fill="none"
  xmlns="http://www.w3.org/2000/svg"
>
  <path
    d="M1620.04 641.632C1618.86 639.673 1617.66 637.755 1616.42 635.879C1605.37 619.107 1592 605.692 1577.02 595.814C1562.04 585.937 1545.44 579.59 1527.93 576.954C1499.47 572.67 1468.61 578.193 1438.4 594.304C1395.23 617.329 1371.3 621.577 1356.89 608.406C1340.39 593.313 1336.65 555.365 1330.87 496.576C1330.29 490.683 1329.69 484.579 1329.12 478.884C1324.74 435.394 1315.7 401.07 1302.01 377.757C1295.36 366.448 1287.63 357.745 1278.81 351.859C1270 345.979 1260.08 342.897 1249.04 342.827C1229.42 342.702 1206.33 352.092 1179.76 372.181C1164.46 383.755 1151.99 394.584 1141.63 403.58C1121.89 420.728 1109.8 431.228 1100.1 427.619C1085.76 422.286 1077.04 386.488 1057.24 296.427C1049.5 261.243 1044.32 232.121 1040.09 208.341C1032.2 164.002 1027.61 138.25 1016.02 126.542C1001.59 111.964 975.942 119.132 918.846 139.13C871.082 155.858 848.408 152.131 835.055 138.642C826.326 129.825 821.648 116.881 816.545 102.76C808.643 80.8922 799.715 56.1886 773.225 39.9282L773.191 39.9075L773.16 39.882C749.184 20.102 722.92 19.674 699.671 19.2956C684.659 19.0515 670.897 18.8269 659.724 13.4319C642.632 5.17852 631.748 -15.0588 632.072 -65.6662C632.459 -126.162 630.917 -152.747 612.444 -161.667C597.608 -168.832 571.763 -164.81 527.263 -157.886C503.396 -154.173 474.168 -149.625 438.378 -145.524C346.766 -135.026 310.074 -131.663 300.376 -143.496C293.814 -151.502 299.823 -166.342 309.637 -190.58C314.786 -203.295 320.983 -218.602 326.964 -236.834C337.345 -268.48 338.733 -293.372 332.246 -311.893C328.599 -322.306 322.464 -330.692 314.043 -337.119C305.613 -343.552 294.872 -348.042 282.019 -350.656C255.524 -356.045 220.124 -353.455 177.568 -343.481C171.995 -342.175 166.027 -340.762 160.264 -339.398C102.78 -325.791 65.6736 -317.007 46.0416 -327.722C28.9086 -337.074 25.1595 -361.09 32.929 -409.399C38.3651 -443.199 33.5759 -474.18 20.2863 -499.714C14.8883 -510.086 8.0871 -519.557 2.17494e-06 -527.951L0.177688 -528.2C8.38394 -519.71 15.2781 -510.129 20.7396 -499.635C34.0659 -474.031 38.8705 -442.983 33.4258 -409.127C25.6907 -361.034 29.311 -337.186 46.0927 -328.027C65.4745 -317.448 102.514 -326.216 159.896 -339.8C165.285 -341.075 170.851 -342.393 177.201 -343.881C219.808 -353.867 255.266 -356.457 281.827 -351.054C294.807 -348.414 305.678 -343.862 314.238 -337.33C322.804 -330.793 329.036 -322.289 332.725 -311.751C339.232 -293.173 337.849 -268.228 327.453 -236.538C321.462 -218.275 315.269 -202.979 310.124 -190.273C300.345 -166.121 294.358 -151.333 300.746 -143.539C310.132 -132.087 346.699 -135.463 438.045 -145.93C473.816 -150.029 503.048 -154.577 526.917 -158.291C571.508 -165.229 597.408 -169.259 612.446 -161.997C631.375 -152.857 632.959 -126.152 632.57 -65.4254C632.248 -15.0728 642.937 4.99516 659.726 13.1023C670.738 18.4194 684.439 18.6426 699.384 18.8861C722.74 19.2667 749.122 19.6965 773.358 39.673C800.119 56.1155 809.087 80.9308 817.026 102.899C822.106 116.956 826.763 129.843 835.366 138.534C848.483 151.783 870.933 155.381 918.457 138.737C975.771 118.663 1001.54 111.495 1016.33 126.434C1028.08 138.301 1032.67 164.106 1040.58 208.536C1044.82 232.319 1050 261.446 1057.73 296.611C1077.47 386.409 1086.14 422.093 1100.02 427.254C1109.47 430.768 1121.51 420.306 1141.18 403.219C1151.53 394.229 1163.99 383.407 1179.32 371.814C1205.92 351.697 1229.07 342.294 1248.75 342.419C1259.92 342.49 1269.98 345.625 1278.95 351.606C1287.9 357.582 1295.74 366.389 1302.45 377.809C1316.18 401.179 1325.23 435.559 1329.61 479.1C1330.27 485.59 1330.83 491.283 1331.37 496.794C1337.14 555.478 1340.87 593.359 1357.16 608.259C1371.27 621.16 1395.01 616.846 1437.99 593.922C1468.24 577.786 1499.17 572.255 1527.71 576.552C1545.33 579.204 1562.05 585.6 1577.15 595.557C1592.25 605.514 1605.72 619.024 1616.84 635.903C1618.01 637.673 1619.15 639.48 1620.26 641.323L1620.04 641.632L1620.04 641.632Z"
    fill="black"
  />
</svg>
